<svg width="360" height="437" viewBox="0 0 360 437" fill="none" xmlns="http://www.w3.org/2000/svg">
<path d="M0 0H360V409.626C360 409.626 272 348.036 160 409.626C48.0001 471.217 0 409.626 0 409.626V0Z" fill="#D2E4FF"/>
<path d="M0 0H360V378.321C360 378.321 267.5 335.308 155.5 396.895C43.5001 458.482 0 409.603 0 409.603V0Z" fill="#0D6EFD"/>
<path d="M144.909 216.545V234H143.357L133.045 219.384H132.909V234H131.315V216.545H132.857L143.204 231.179H143.34V216.545H144.909ZM151.709 234V216.545H161.834V217.977H153.303V224.548H161.297V225.98H153.303V232.568H162.005V234H151.709ZM168.119 216.545H169.96L176.292 231.75H176.446L182.778 216.545H184.619V234H183.119V219.912H182.983L177.094 234H175.645L169.756 219.912H169.619V234H168.119V216.545ZM200.897 220.909C200.8 219.938 200.371 219.165 199.61 218.591C198.849 218.017 197.891 217.73 196.738 217.73C195.925 217.73 195.21 217.869 194.59 218.148C193.977 218.426 193.494 218.813 193.141 219.307C192.795 219.795 192.621 220.352 192.621 220.977C192.621 221.438 192.721 221.841 192.92 222.188C193.119 222.534 193.386 222.832 193.721 223.082C194.062 223.327 194.437 223.537 194.846 223.713C195.261 223.889 195.678 224.037 196.099 224.156L197.94 224.685C198.496 224.838 199.053 225.034 199.61 225.273C200.167 225.511 200.675 225.813 201.136 226.176C201.602 226.534 201.974 226.974 202.252 227.497C202.536 228.014 202.678 228.636 202.678 229.364C202.678 230.295 202.437 231.134 201.954 231.878C201.471 232.622 200.778 233.213 199.874 233.651C198.971 234.082 197.889 234.298 196.627 234.298C195.44 234.298 194.408 234.102 193.533 233.71C192.658 233.313 191.971 232.764 191.471 232.065C190.971 231.366 190.69 230.557 190.627 229.636H192.264C192.32 230.324 192.548 230.906 192.945 231.384C193.343 231.861 193.86 232.224 194.496 232.474C195.133 232.719 195.843 232.841 196.627 232.841C197.496 232.841 198.269 232.696 198.945 232.406C199.627 232.111 200.161 231.702 200.548 231.179C200.94 230.651 201.136 230.037 201.136 229.338C201.136 228.747 200.982 228.253 200.675 227.855C200.369 227.452 199.94 227.114 199.389 226.841C198.843 226.568 198.21 226.327 197.488 226.116L195.4 225.503C194.031 225.094 192.968 224.528 192.212 223.807C191.457 223.085 191.079 222.165 191.079 221.045C191.079 220.108 191.329 219.284 191.829 218.574C192.335 217.858 193.016 217.301 193.874 216.903C194.738 216.5 195.707 216.298 196.781 216.298C197.866 216.298 198.826 216.497 199.661 216.895C200.496 217.293 201.158 217.841 201.647 218.54C202.141 219.233 202.406 220.023 202.44 220.909H200.897ZM220.307 216.545H221.901V228.102C221.901 229.29 221.622 230.352 221.066 231.29C220.509 232.222 219.733 232.957 218.739 233.497C217.75 234.031 216.6 234.298 215.287 234.298C213.98 234.298 212.83 234.028 211.835 233.489C210.841 232.949 210.066 232.213 209.509 231.281C208.952 230.349 208.674 229.29 208.674 228.102V216.545H210.267V227.991C210.267 228.918 210.475 229.744 210.889 230.472C211.304 231.193 211.887 231.761 212.637 232.176C213.392 232.591 214.276 232.798 215.287 232.798C216.299 232.798 217.182 232.591 217.938 232.176C218.693 231.761 219.276 231.193 219.685 230.472C220.1 229.744 220.307 228.918 220.307 227.991V216.545ZM71.6417 257.179C71.5986 257.003 71.5307 256.849 71.4379 256.717C71.3451 256.581 71.2291 256.466 71.0899 256.374C70.954 256.277 70.7949 256.206 70.6126 256.16C70.4336 256.11 70.2364 256.085 70.021 256.085C69.557 256.085 69.1609 256.196 68.8328 256.418C68.5079 256.64 68.2594 256.96 68.087 257.378C67.918 257.795 67.8335 258.299 67.8335 258.889C67.8335 259.486 67.9147 259.996 68.0771 260.42C68.2395 260.845 68.4814 261.17 68.8029 261.395C69.1244 261.62 69.5238 261.733 70.0011 261.733C70.422 261.733 70.7717 261.672 71.0501 261.549C71.3318 261.426 71.5423 261.252 71.6815 261.027C71.8207 260.802 71.8903 260.536 71.8903 260.232L72.3676 260.281H70.0409V258.312H74.5551V259.724C74.5551 260.652 74.3579 261.446 73.9634 262.106C73.5723 262.762 73.0321 263.266 72.3427 263.617C71.6566 263.965 70.8695 264.139 69.9812 264.139C68.9902 264.139 68.1202 263.929 67.3711 263.508C66.6221 263.087 66.0371 262.487 65.6161 261.708C65.1985 260.929 64.9897 260.003 64.9897 258.929C64.9897 258.087 65.1173 257.341 65.3725 256.692C65.6311 256.042 65.989 255.494 66.4464 255.046C66.9038 254.595 67.4324 254.256 68.0323 254.027C68.6322 253.795 69.2752 253.679 69.9613 253.679C70.5645 253.679 71.1247 253.765 71.6417 253.937C72.1621 254.107 72.6211 254.348 73.0188 254.663C73.4199 254.975 73.743 255.344 73.9883 255.772C74.2336 256.2 74.3827 256.669 74.4357 257.179H71.6417ZM82.2839 264V253.818H86.6788C87.4345 253.818 88.0957 253.956 88.6625 254.231C89.2293 254.506 89.6701 254.902 89.9849 255.419C90.2998 255.936 90.4572 256.556 90.4572 257.278C90.4572 258.008 90.2948 258.622 89.97 259.123C89.6485 259.623 89.1961 260.001 88.6128 260.256C88.0328 260.512 87.355 260.639 86.5794 260.639H83.9544V258.491H86.0226C86.3474 258.491 86.6241 258.452 86.8528 258.372C87.0848 258.289 87.2622 258.158 87.3848 257.979C87.5107 257.8 87.5737 257.567 87.5737 257.278C87.5737 256.987 87.5107 256.75 87.3848 256.567C87.2622 256.382 87.0848 256.246 86.8528 256.16C86.6241 256.07 86.3474 256.026 86.0226 256.026H85.0481V264H82.2839ZM88.2499 259.327L90.7953 264H87.7925L85.3067 259.327H88.2499ZM100.72 264H97.7374L101.098 253.818H104.877L108.237 264H105.254L103.027 256.622H102.948L100.72 264ZM100.164 259.983H105.772V262.051H100.164V259.983ZM119.576 264H115.658V253.818H119.536C120.583 253.818 121.488 254.022 122.25 254.43C123.016 254.834 123.606 255.417 124.02 256.18C124.438 256.939 124.647 257.848 124.647 258.909C124.647 259.97 124.44 260.881 124.025 261.643C123.611 262.402 123.024 262.986 122.265 263.393C121.506 263.798 120.61 264 119.576 264ZM118.422 261.653H119.476C119.98 261.653 120.409 261.572 120.764 261.41C121.122 261.247 121.394 260.967 121.579 260.57C121.768 260.172 121.863 259.618 121.863 258.909C121.863 258.2 121.767 257.646 121.574 257.249C121.385 256.851 121.107 256.571 120.739 256.408C120.374 256.246 119.927 256.165 119.397 256.165H118.422V261.653ZM138.391 253.818H141.155V260.341C141.155 261.116 140.97 261.788 140.599 262.354C140.231 262.918 139.717 263.354 139.057 263.662C138.398 263.967 137.632 264.119 136.761 264.119C135.882 264.119 135.113 263.967 134.454 263.662C133.794 263.354 133.28 262.918 132.913 262.354C132.548 261.788 132.366 261.116 132.366 260.341V253.818H135.13V260.102C135.13 260.417 135.199 260.699 135.339 260.947C135.478 261.193 135.67 261.385 135.915 261.524C136.164 261.663 136.446 261.733 136.761 261.733C137.079 261.733 137.36 261.663 137.606 261.524C137.851 261.385 138.043 261.193 138.182 260.947C138.322 260.699 138.391 260.417 138.391 260.102V253.818ZM151.554 264H148.571L151.932 253.818H155.71L159.071 264H156.088L153.861 256.622H153.781L151.554 264ZM150.997 259.983H156.605V262.051H150.997V259.983ZM164.928 256.045V253.818H173.778V256.045H170.715V264H167.991V256.045H164.928ZM181.258 264V253.818H188.596V256.045H184.022V257.795H188.218V260.023H184.022V261.773H188.576V264H181.258ZM205.358 256.045V253.818H214.207V256.045H211.145V264H208.42V256.045H205.358ZM221.687 264V253.818H226.082C226.838 253.818 227.499 253.956 228.066 254.231C228.633 254.506 229.073 254.902 229.388 255.419C229.703 255.936 229.861 256.556 229.861 257.278C229.861 258.008 229.698 258.622 229.373 259.123C229.052 259.623 228.599 260.001 228.016 260.256C227.436 260.512 226.758 260.639 225.983 260.639H223.358V258.491H225.426C225.751 258.491 226.028 258.452 226.256 258.372C226.488 258.289 226.666 258.158 226.788 257.979C226.914 257.8 226.977 257.567 226.977 257.278C226.977 256.987 226.914 256.75 226.788 256.567C226.666 256.382 226.488 256.246 226.256 256.16C226.028 256.07 225.751 256.026 225.426 256.026H224.452V264H221.687ZM227.653 259.327L230.199 264H227.196L224.71 259.327H227.653ZM240.124 264H237.141L240.502 253.818H244.28L247.641 264H244.658L242.431 256.622H242.351L240.124 264ZM239.567 259.983H245.175V262.051H239.567V259.983ZM264.089 257.636H261.285C261.265 257.404 261.212 257.194 261.126 257.005C261.043 256.816 260.927 256.654 260.778 256.518C260.632 256.379 260.454 256.272 260.246 256.2C260.037 256.123 259.8 256.085 259.535 256.085C259.071 256.085 258.678 256.198 258.356 256.423C258.038 256.649 257.796 256.972 257.631 257.393C257.468 257.814 257.387 258.319 257.387 258.909C257.387 259.532 257.47 260.054 257.636 260.475C257.805 260.893 258.048 261.208 258.366 261.42C258.685 261.629 259.067 261.733 259.515 261.733C259.77 261.733 259.999 261.701 260.201 261.638C260.403 261.572 260.579 261.478 260.728 261.355C260.877 261.232 260.998 261.085 261.091 260.913C261.187 260.737 261.252 260.54 261.285 260.321L264.089 260.341C264.055 260.772 263.935 261.211 263.726 261.658C263.517 262.103 263.22 262.513 262.836 262.891C262.455 263.266 261.982 263.567 261.419 263.796C260.855 264.025 260.201 264.139 259.455 264.139C258.52 264.139 257.682 263.939 256.939 263.538C256.2 263.137 255.615 262.547 255.185 261.768C254.757 260.989 254.543 260.036 254.543 258.909C254.543 257.776 254.762 256.821 255.199 256.045C255.637 255.267 256.227 254.678 256.969 254.281C257.712 253.879 258.54 253.679 259.455 253.679C260.098 253.679 260.69 253.767 261.23 253.942C261.77 254.118 262.244 254.375 262.652 254.713C263.06 255.048 263.388 255.46 263.636 255.951C263.885 256.442 264.036 257.003 264.089 257.636ZM271.783 264V253.818H279.121V256.045H274.547V257.795H278.743V260.023H274.547V261.773H279.101V264H271.783ZM286.932 264V253.818H291.327C292.082 253.818 292.743 253.956 293.31 254.231C293.877 254.506 294.318 254.902 294.633 255.419C294.948 255.936 295.105 256.556 295.105 257.278C295.105 258.008 294.943 258.622 294.618 259.123C294.296 259.623 293.844 260.001 293.261 260.256C292.681 260.512 292.003 260.639 291.227 260.639H288.602V258.491H290.67C290.995 258.491 291.272 258.452 291.501 258.372C291.733 258.289 291.91 258.158 292.033 257.979C292.159 257.8 292.221 257.567 292.221 257.278C292.221 256.987 292.159 256.75 292.033 256.567C291.91 256.382 291.733 256.246 291.501 256.16C291.272 256.07 290.995 256.026 290.67 256.026H289.696V264H286.932ZM292.898 259.327L295.443 264H292.44L289.954 259.327H292.898Z" fill="white"/>
<g filter="url(#filter0_d_1468_2639)">
<path d="M139 83.1055C139 78.6289 142.629 75 147.105 75H205.465C214.597 75 222 82.403 222 91.5352V149.895C222 154.371 218.371 158 213.895 158H155.535C146.403 158 139 150.597 139 141.465V83.1055Z" fill="#D2E4FF"/>
</g>
<path d="M139 83.1055C139 78.6289 142.629 75 147.105 75H184.715C205.307 75 222 91.6931 222 112.285V149.895C222 154.371 218.371 158 213.895 158H176.285C155.693 158 139 141.307 139 120.715V83.1055Z" fill="#0D6EFD"/>
<path d="M153.972 138.489L153.916 132.816L154.654 132.809L157.53 137.222L157.486 132.781L158.167 132.774L158.223 138.448L157.49 138.455L154.609 134.041L154.653 138.483L153.972 138.489ZM167.058 138.36L167.002 132.687L170.483 132.653L170.49 133.333L167.69 133.361L167.705 134.974L169.999 134.951L170.006 135.632L167.712 135.655L167.732 137.673L170.532 137.645L170.539 138.326L167.058 138.36ZM179.289 138.24L180.331 132.556L180.854 132.55L182.426 136.564L183.914 132.52L184.437 132.515L185.595 138.178L184.902 138.185L184.063 134.075L182.662 137.899L182.212 137.903L180.736 134.108L179.982 138.233L179.289 138.24ZM196.432 138.176C196.126 138.179 195.831 138.135 195.547 138.043C195.262 137.949 195.012 137.813 194.797 137.637C194.585 137.461 194.433 137.25 194.341 137.005L194.975 136.76C195.03 136.911 195.132 137.042 195.279 137.154C195.428 137.264 195.604 137.348 195.804 137.408C196.005 137.469 196.212 137.498 196.425 137.496C196.668 137.493 196.893 137.452 197.101 137.371C197.311 137.288 197.48 137.174 197.608 137.03C197.736 136.885 197.799 136.717 197.797 136.526C197.796 136.328 197.726 136.168 197.59 136.045C197.454 135.92 197.28 135.821 197.068 135.75C196.857 135.677 196.636 135.621 196.406 135.583C196.014 135.522 195.662 135.433 195.35 135.318C195.041 135.199 194.794 135.033 194.611 134.818C194.431 134.604 194.339 134.32 194.335 133.966C194.332 133.636 194.424 133.347 194.611 133.1C194.8 132.852 195.051 132.659 195.363 132.521C195.675 132.383 196.012 132.312 196.374 132.308C196.674 132.305 196.965 132.35 197.247 132.442C197.531 132.531 197.782 132.663 198 132.839C198.218 133.016 198.376 133.232 198.473 133.487L197.831 133.729C197.775 133.575 197.673 133.444 197.523 133.335C197.376 133.222 197.202 133.138 197.002 133.08C196.804 133.02 196.597 132.991 196.381 132.993C196.14 132.993 195.916 133.034 195.709 133.117C195.502 133.2 195.334 133.314 195.206 133.459C195.078 133.603 195.014 133.77 195.016 133.959C195.018 134.186 195.08 134.36 195.2 134.48C195.322 134.598 195.488 134.685 195.697 134.743C195.905 134.8 196.14 134.85 196.399 134.894C196.767 134.952 197.109 135.048 197.424 135.18C197.738 135.309 197.991 135.483 198.183 135.703C198.377 135.923 198.475 136.195 198.478 136.519C198.482 136.848 198.388 137.137 198.199 137.385C198.012 137.633 197.763 137.825 197.451 137.964C197.139 138.102 196.799 138.173 196.432 138.176ZM209.495 138.048C209.041 138.052 208.646 137.945 208.309 137.727C207.974 137.509 207.714 137.214 207.53 136.843C207.348 136.469 207.254 136.054 207.25 135.597L207.217 132.291L207.898 132.284L207.931 135.591C207.934 135.915 207.996 136.213 208.118 136.485C208.242 136.756 208.419 136.972 208.647 137.132C208.878 137.292 209.159 137.37 209.488 137.367C209.823 137.363 210.104 137.28 210.329 137.115C210.554 136.948 210.724 136.729 210.837 136.458C210.953 136.184 211.01 135.885 211.007 135.56L210.974 132.254L211.655 132.247L211.688 135.554C211.691 135.897 211.643 136.219 211.543 136.52C211.443 136.818 211.297 137.081 211.105 137.31C210.915 137.539 210.685 137.718 210.413 137.848C210.142 137.978 209.836 138.044 209.495 138.048Z" fill="white"/>
<path d="M152.683 123.369C152.678 122.924 152.901 122.487 153.351 122.056C153.81 121.625 154.566 121.219 155.619 120.838C154.147 120.074 153.404 118.937 153.389 117.427C153.384 116.982 153.45 116.551 153.584 116.132C153.719 115.705 153.928 115.304 154.212 114.931C154.505 114.557 154.872 114.225 155.314 113.933C155.765 113.641 156.296 113.404 156.906 113.222C155.891 112.797 155.122 112.248 154.596 111.577C154.07 110.896 153.803 110.116 153.794 109.236C153.788 108.578 153.958 107.946 154.304 107.34C154.659 106.735 155.196 106.201 155.915 105.74C156.633 105.269 157.542 104.894 158.642 104.615C159.742 104.335 161.038 104.188 162.529 104.173C163.308 104.166 164.031 104.196 164.699 104.263C165.376 104.331 166.007 104.431 166.592 104.564C166.884 104.052 167.236 103.613 167.649 103.247C168.063 102.882 168.514 102.581 169.003 102.344C169.501 102.108 170.027 101.931 170.582 101.815C171.137 101.698 171.702 101.637 172.276 101.631C172.675 101.627 173.046 101.684 173.39 101.801C173.734 101.909 174.032 102.059 174.284 102.251C174.545 102.443 174.751 102.668 174.902 102.926C175.053 103.184 175.13 103.461 175.133 103.757C175.136 104.054 175.064 104.333 174.919 104.593C174.773 104.854 174.571 105.083 174.314 105.281C174.065 105.478 173.771 105.638 173.429 105.762C173.087 105.876 172.717 105.936 172.319 105.94C171.929 105.943 171.558 105.892 171.205 105.784C170.861 105.667 170.558 105.512 170.297 105.32C170.036 105.128 169.83 104.903 169.679 104.645C169.528 104.387 169.451 104.11 169.448 103.813C169.446 103.572 169.499 103.331 169.608 103.089C169.211 103.26 168.833 103.49 168.475 103.781C168.126 104.072 167.828 104.427 167.582 104.846C168.809 105.251 169.741 105.817 170.379 106.543C171.025 107.259 171.353 108.099 171.362 109.063C171.37 109.813 171.182 110.496 170.799 111.112C170.416 111.727 169.851 112.256 169.105 112.699C168.368 113.142 167.454 113.489 166.363 113.741C165.272 113.983 164.027 114.111 162.628 114.125C160.867 114.142 159.36 113.976 158.105 113.627C157.578 113.735 157.209 113.882 156.997 114.069C156.795 114.257 156.695 114.448 156.697 114.642C156.699 114.772 156.746 114.901 156.84 115.03C156.934 115.159 157.111 115.273 157.372 115.372C157.641 115.471 158.008 115.556 158.472 115.625C158.936 115.686 159.543 115.712 160.294 115.705L165.881 115.65C166.9 115.64 167.842 115.718 168.705 115.886C169.569 116.044 170.313 116.32 170.937 116.712C171.571 117.095 172.068 117.614 172.426 118.268C172.785 118.922 172.969 119.736 172.978 120.709C172.987 121.543 172.804 122.295 172.431 122.966C172.067 123.646 171.461 124.227 170.613 124.708C169.775 125.189 168.671 125.561 167.302 125.824C165.933 126.088 164.257 126.23 162.274 126.249C160.551 126.266 159.082 126.202 157.866 126.056C156.66 125.911 155.671 125.707 154.899 125.446C154.137 125.185 153.578 124.876 153.222 124.518C152.867 124.16 152.687 123.777 152.683 123.369ZM162.619 113.263C162.971 113.26 163.262 113.183 163.492 113.032C163.732 112.872 163.919 112.63 164.055 112.304C164.191 111.969 164.284 111.542 164.334 111.022C164.385 110.503 164.407 109.873 164.399 109.131C164.392 108.39 164.358 107.76 164.297 107.242C164.236 106.724 164.135 106.303 163.993 105.98C163.851 105.648 163.658 105.409 163.416 105.263C163.183 105.108 162.89 105.032 162.538 105.035C162.186 105.039 161.89 105.12 161.651 105.28C161.421 105.431 161.238 105.674 161.102 106.008C160.966 106.334 160.868 106.757 160.809 107.276C160.758 107.796 160.737 108.426 160.744 109.167C160.751 109.909 160.785 110.538 160.846 111.057C160.916 111.575 161.022 112 161.164 112.332C161.306 112.655 161.494 112.894 161.727 113.05C161.97 113.196 162.267 113.267 162.619 113.263ZM154.905 123.208C154.907 123.347 154.936 123.495 154.993 123.652C155.059 123.809 155.181 123.965 155.359 124.121C155.546 124.277 155.802 124.423 156.128 124.558C156.463 124.694 156.904 124.815 157.452 124.921C158 125.027 158.668 125.108 159.456 125.165C160.244 125.222 161.185 125.245 162.278 125.235C163.585 125.222 164.742 125.155 165.751 125.034C166.76 124.912 167.607 124.751 168.29 124.55C168.983 124.358 169.505 124.125 169.854 123.853C170.213 123.59 170.391 123.306 170.388 123C170.383 122.555 170.051 122.234 169.391 122.037C168.732 121.849 167.781 121.761 166.539 121.773L161.022 121.828C160.188 121.836 159.423 121.797 158.727 121.711C158.031 121.625 157.395 121.497 156.819 121.327C156.108 121.63 155.611 121.936 155.327 122.245C155.042 122.563 154.902 122.884 154.905 123.208ZM177.291 105.557L174.859 105.581L174.849 104.58L177.281 104.556C178.217 104.547 179.054 104.381 179.792 104.059C180.54 103.727 181.17 103.304 181.684 102.789C182.207 102.265 182.604 101.682 182.876 101.04C183.148 100.398 183.28 99.7573 183.274 99.1179L185.498 99.096L185.551 104.475L190.026 104.431L190.036 105.431L185.561 105.476L185.645 114.037C185.655 115.029 185.714 115.839 185.822 116.468C185.939 117.088 186.097 117.573 186.295 117.923C186.502 118.273 186.741 118.511 187.011 118.639C187.29 118.756 187.597 118.813 187.93 118.81C188.254 118.807 188.569 118.734 188.873 118.592C189.178 118.441 189.444 118.207 189.672 117.889C189.901 117.563 190.082 117.144 190.216 116.633C190.35 116.113 190.413 115.477 190.406 114.727C190.404 114.551 190.398 114.37 190.387 114.185C190.375 113.991 190.36 113.791 190.339 113.588L191.506 113.576C191.539 114.039 191.557 114.461 191.561 114.841C191.572 115.999 191.419 116.946 191.102 117.681C190.794 118.407 190.346 118.976 189.757 119.39C189.168 119.803 188.448 120.088 187.597 120.245C186.755 120.402 185.806 120.485 184.75 120.496C183.564 120.507 182.516 120.402 181.605 120.179C180.695 119.956 179.927 119.598 179.301 119.104C178.675 118.6 178.201 117.952 177.878 117.158C177.555 116.364 177.388 115.397 177.377 114.258L177.291 105.557ZM193.538 113.806L194.567 113.796C194.972 114.497 195.53 115.168 196.241 115.809C196.951 116.442 197.749 117.004 198.634 117.495C199.529 117.978 200.473 118.362 201.467 118.649C202.462 118.936 203.45 119.074 204.432 119.065C204.84 119.061 205.233 119.038 205.613 118.997C205.992 118.947 206.325 118.865 206.611 118.751C206.897 118.628 207.123 118.468 207.288 118.272C207.462 118.076 207.547 117.825 207.544 117.519C207.541 117.204 207.395 116.946 207.106 116.745C206.826 116.534 206.444 116.362 205.961 116.228C205.478 116.094 204.921 115.983 204.29 115.897C203.668 115.81 203.018 115.724 202.341 115.638C201.116 115.492 199.97 115.295 198.902 115.046C197.834 114.797 196.904 114.45 196.112 114.004C195.32 113.557 194.693 112.989 194.232 112.298C193.781 111.608 193.55 110.748 193.54 109.72C193.53 108.775 193.731 107.939 194.14 107.212C194.559 106.476 195.142 105.858 195.887 105.36C196.633 104.852 197.519 104.468 198.545 104.208C199.571 103.938 200.691 103.797 201.905 103.785C202.479 103.78 203.059 103.83 203.644 103.935C204.238 104.04 204.809 104.183 205.357 104.363C205.915 104.534 206.441 104.737 206.934 104.973C207.437 105.2 207.889 105.432 208.289 105.669L210.134 103.871L211.288 103.86L211.342 109.336L210.355 109.346C209.969 108.71 209.481 108.122 208.892 107.581C208.312 107.04 207.654 106.574 206.918 106.182C206.182 105.791 205.387 105.489 204.532 105.275C203.678 105.051 202.787 104.944 201.86 104.953C201.406 104.958 200.99 104.985 200.61 105.035C200.231 105.085 199.903 105.163 199.626 105.267C199.349 105.372 199.132 105.509 198.976 105.677C198.83 105.845 198.758 106.045 198.76 106.277C198.763 106.592 198.881 106.85 199.115 107.052C199.349 107.253 199.693 107.431 200.149 107.584C200.614 107.727 201.185 107.856 201.862 107.97C202.54 108.084 203.329 108.206 204.229 108.336C205.371 108.51 206.434 108.726 207.419 108.985C208.403 109.244 209.255 109.602 209.973 110.058C210.7 110.514 211.271 111.097 211.686 111.807C212.11 112.516 212.327 113.413 212.338 114.497C212.347 115.377 212.183 116.176 211.847 116.893C211.521 117.6 211.026 118.203 210.364 118.7C209.711 119.198 208.899 119.581 207.929 119.85C206.958 120.128 205.843 120.274 204.583 120.286C203.99 120.292 203.35 120.238 202.663 120.124C201.977 120.02 201.294 119.865 200.615 119.658C199.946 119.442 199.309 119.185 198.703 118.885C198.098 118.576 197.585 118.229 197.164 117.843L194.755 120.175L193.601 120.186L193.538 113.806Z" fill="white"/>
<path d="M152.436 107.812L152.647 109.186L153.808 108.422L153.808 108.422L153.808 108.422L153.808 108.422L153.809 108.421L153.814 108.418L153.836 108.403C153.857 108.39 153.888 108.37 153.93 108.343C154.013 108.29 154.138 108.212 154.299 108.115C154.621 107.919 155.088 107.645 155.66 107.335C156.807 106.714 158.36 105.959 160.009 105.4C161.658 104.842 163.314 104.512 164.565 104.321C165.188 104.226 165.706 104.167 166.067 104.131C166.247 104.113 166.387 104.101 166.482 104.094C166.529 104.09 166.564 104.088 166.587 104.086L166.612 104.084L166.618 104.084L166.618 104.084L166.619 104.084L166.619 104.084L166.619 104.084L167.398 104.038L167.407 104.978L167.416 105.869L168.307 105.861L169.079 105.853L169.971 105.844L169.962 104.953L169.906 99.3148L171.179 98.5376L174.005 96.8122L170.695 96.8853L156.72 97.1937L156.426 97.2002L156.193 97.3802L146.151 105.16L143.734 107.032L146.778 106.753L152.197 106.256L152.436 107.812ZM166.6 101.312L167.366 100.839L167.386 102.839L167.359 102.786L166.6 101.312Z" fill="white" stroke="#0D6EFD" stroke-width="1.7832"/>
<defs>
<filter id="filter0_d_1468_2639" x="120.581" y="60.9905" width="119.838" height="119.838" filterUnits="userSpaceOnUse" color-interpolation-filters="sRGB">
<feFlood flood-opacity="0" result="BackgroundImageFix"/>
<feColorMatrix in="SourceAlpha" type="matrix" values="0 0 0 0 0 0 0 0 0 0 0 0 0 0 0 0 0 0 127 0" result="hardAlpha"/>
<feOffset dy="4.40968"/>
<feGaussianBlur stdDeviation="9.20959"/>
<feComposite in2="hardAlpha" operator="out"/>
<feColorMatrix type="matrix" values="0 0 0 0 0 0 0 0 0 0.345226 0 0 0 0 0.854167 0 0 0 1 0"/>
<feBlend mode="normal" in2="BackgroundImageFix" result="effect1_dropShadow_1468_2639"/>
<feBlend mode="normal" in="SourceGraphic" in2="effect1_dropShadow_1468_2639" result="shape"/>
</filter>
</defs>
</svg>
